<svg xmlns="http://www.w3.org/2000/svg" xmlns:xlink="http://www.w3.org/1999/xlink" fill="#000000" height="800" width="800" version="1.1" id="Layer_1" viewBox="0 0 456.373 456.373" xml:space="preserve">
<g>
	<g>
		<path d="M397.83,1.156c-5.665-2.349-12.192-1.05-16.532,3.288L277.3,108.442H168.923c-65.884,0-119.745,53.598-119.745,119.745    c0,66.028,53.717,119.745,119.745,119.745H277.3L381.298,451.93c4.345,4.346,10.874,5.633,16.532,3.288    c5.669-2.348,9.365-7.879,9.365-14.015V15.171C407.195,9.035,403.5,3.503,397.83,1.156z M138.883,312.393    c-34.565-12.367-59.365-45.443-59.365-84.206c0-38.764,24.8-71.839,59.365-84.207V312.393z M268.413,317.59h-99.189V138.782    h99.189V317.59z M376.855,404.578l-78.101-78.101V129.896l78.101-78.101V404.578z"></path>
	</g>
</g>
</svg>
